<svg xmlns="http://www.w3.org/2000/svg" height="96" width="96">
  <line x1="25" y1="15" x2="25" y2="20" style="stroke:rgb(255,0,0);stroke-width:2" />
  <line x1="25" y1="20" x2="45" y2="50" style="stroke:rgb(255,0,0);stroke-width:2" />
  <line x1="45" y1="50" x2="25" y2="80" style="stroke:rgb(255,0,0);stroke-width:2" />
  <line x1="25" y1="80" x2="25" y2="85" style="stroke:rgb(255,0,0);stroke-width:2" />
  <line x1="25" y1="85" x2="30" y2="85" style="stroke:rgb(255,0,0);stroke-width:2" />
  <line x1="30" y1="85" x2="50" y2="55" style="stroke:rgb(255,0,0);stroke-width:2" />
  <line x1="50" y1="55" x2="70" y2="85" style="stroke:rgb(255,0,0);stroke-width:2" />
  <line x1="70" y1="85" x2="75" y2="85" style="stroke:rgb(255,0,0);stroke-width:2" />
  <line x1="75" y1="85" x2="75" y2="80" style="stroke:rgb(255,0,0);stroke-width:2" />
  <line x1="75" y1="80" x2="55" y2="50" style="stroke:rgb(255,0,0);stroke-width:2" />
  <line x1="55" y1="50" x2="75" y2="20" style="stroke:rgb(255,0,0);stroke-width:2" />
  <line x1="75" y1="20" x2="75" y2="15" style="stroke:rgb(255,0,0);stroke-width:2" />
  <line x1="75" y1="15" x2="70" y2="15" style="stroke:rgb(255,0,0);stroke-width:2" />
  <line x1="70" y1="15" x2="50" y2="45" style="stroke:rgb(255,0,0);stroke-width:2" />
  <line x1="50" y1="45" x2="30" y2="15" style="stroke:rgb(255,0,0);stroke-width:2" />
  <line x1="30" y1="15" x2="25" y2="15" style="stroke:rgb(255,0,0);stroke-width:2" />
</svg>
